<?xml version="1.0" encoding="UTF-8" standalone="no"?>
<!-- Created with Inkscape (http://www.inkscape.org/) -->

<svg
   xmlns:dc="http://purl.org/dc/elements/1.1/"
   xmlns:cc="http://creativecommons.org/ns#"
   xmlns:rdf="http://www.w3.org/1999/02/22-rdf-syntax-ns#"
   xmlns:svg="http://www.w3.org/2000/svg"
   xmlns="http://www.w3.org/2000/svg"
   xmlns:sodipodi="http://sodipodi.sourceforge.net/DTD/sodipodi-0.dtd"
   xmlns:inkscape="http://www.inkscape.org/namespaces/inkscape"
   width="256"
   height="256"
   viewBox="0 0 67.733336 67.73333"
   version="1.1"
   id="svg138"
   inkscape:version="0.92.2 (5c3e80d, 2017-08-06)"
   sodipodi:docname="Logo.svg">
  <defs
     id="defs132">
    <clipPath
       clipPathUnits="userSpaceOnUse"
       id="clipPath26">
      <path
         d="M 0,423.261 H 297 V 841.89 H 0 Z"
         id="path24"
         inkscape:connector-curvature="0" />
    </clipPath>
  </defs>
  <sodipodi:namedview
     id="base"
     pagecolor="#ffffff"
     bordercolor="#666666"
     borderopacity="1.0"
     inkscape:pageopacity="0.0"
     inkscape:pageshadow="2"
     inkscape:zoom="3.3125"
     inkscape:cx="135.84906"
     inkscape:cy="140.07547"
     inkscape:document-units="mm"
     inkscape:current-layer="layer1"
     showgrid="false"
     fit-margin-top="0"
     fit-margin-left="0"
     fit-margin-right="0"
     fit-margin-bottom="0"
     units="px"
     inkscape:window-width="1920"
     inkscape:window-height="1017"
     inkscape:window-x="-8"
     inkscape:window-y="-8"
     inkscape:window-maximized="1" />
  <metadata
     id="metadata135">
    <rdf:RDF>
      <cc:Work
         rdf:about="">
        <dc:format>image/svg+xml</dc:format>
        <dc:type
           rdf:resource="http://purl.org/dc/dcmitype/StillImage" />
        <dc:title></dc:title>
      </cc:Work>
    </rdf:RDF>
  </metadata>
  <g
     inkscape:label="Layer 1"
     inkscape:groupmode="layer"
     id="layer1"
     transform="translate(-105.57545,-68.263104)">
    <g
       transform="matrix(0.55765027,0,0,-0.55765027,56.631136,454.8855)"
       id="logo"
       inkscape:label="logo">
      <title
         id="title192">Charlotte &amp; Michiel</title>
      <g
         id="g22"
         clip-path="url(#clipPath26)">
        <g
           id="g28"
           transform="translate(140.8654,577.8191)">
          <path
             d="m 0,0 c -0.684,0.996 -1.298,1.94 -1.966,2.847 -0.38,0.515 -0.827,1.031 -1.517,0.451 -0.081,0.058 -0.128,0.074 -0.139,0.103 -0.282,0.772 -0.674,1.524 -0.809,2.32 -0.196,1.143 0.298,1.92 1.695,1.328 0.378,-0.161 0.73,-0.382 1.108,-0.545 C -0.985,6.227 -0.866,4.991 -1.355,4.54 -1.8,4.129 -1.715,3.847 -1.308,3.428 -0.79,2.893 -0.403,2.232 0.061,1.642 0.298,1.341 0.577,1.069 0.843,0.79 0.971,0.658 1.193,0.563 1.237,0.411 1.459,-0.34 2.083,-0.243 2.648,-0.353 c 1.424,-0.279 2.808,0.008 4.208,0.187 0.586,0.075 1.19,0.013 1.795,0.13 C 7.694,0.435 6.707,0.852 5.79,1.39 4.755,1.998 3.794,2.73 2.782,3.381 2.284,3.699 1.746,3.957 1.224,4.237 1.076,4.317 0.852,4.338 0.778,4.455 0.638,4.683 0.581,4.962 0.489,5.218 0.725,5.228 0.963,5.257 1.198,5.243 1.58,5.223 1.964,5.12 2.339,5.148 4.025,5.276 5.591,5.025 7.023,4.024 8.228,3.181 9.538,2.49 10.746,1.65 c 0.54,-0.375 1.045,-0.884 1.375,-1.446 0.339,-0.573 0.777,-0.935 1.344,-0.775 0.66,0.186 1.221,-0.053 1.806,-0.146 0.99,-0.157 1.937,-0.111 2.907,0.128 0.87,0.215 1.773,0.295 2.645,0.5 0.428,0.102 0.828,0.337 1.228,0.539 0.272,0.139 0.526,0.196 0.678,-0.115 0.146,-0.297 0.011,-0.508 -0.317,-0.59 -1.331,-0.338 -2.656,-0.707 -3.997,-1.004 -0.777,-0.172 -1.577,-0.305 -2.37,-0.32 -1.403,-0.023 -2.809,0.052 -4.214,0.094 C 11.1,-1.464 10.517,-1.641 9.873,-2.117 8.845,-2.881 7.632,-3.413 6.455,-3.952 5.711,-4.294 4.905,-4.555 4.1,-4.702 2.902,-4.919 1.683,-5.061 0.467,-5.129 c -1.75,-0.095 -3.507,-0.068 -5.259,-0.154 -0.477,-0.022 -0.644,0.213 -0.68,0.547 -0.02,0.181 0.181,0.513 0.348,0.564 1.22,0.38 2.187,1.114 3.134,1.949 0.804,0.709 1.922,0.74 2.935,0.964 0.096,0.021 0.186,0.072 0.419,0.163 -1.767,0.263 -3.375,0.604 -4.996,0.7 -0.766,0.044 -1.562,-0.373 -2.34,-0.597 -0.398,-0.113 -0.792,-0.248 -1.183,-0.388 -0.473,-0.171 -0.943,-0.278 -0.944,-0.991 -10e-4,-0.586 -0.616,-0.764 -1.053,-1.004 -1.086,-0.594 -2.067,-0.212 -3.141,0.389 0.453,0.596 0.851,1.164 1.295,1.693 0.505,0.599 1.162,0.489 1.794,0.261 0.357,-0.128 0.599,-0.082 0.926,0.139 0.392,0.264 0.884,0.383 1.338,0.552 0.205,0.076 0.422,0.121 0.626,0.242 -0.958,0.246 -1.876,0.457 -2.893,0.247 -1.832,-0.376 -3.662,-0.205 -5.46,0.33 -1.697,0.503 -3.409,0.957 -5.098,1.485 -0.255,0.08 -0.487,0.427 -0.598,0.702 -0.064,0.157 0.077,0.507 0.233,0.622 0.847,0.625 1.678,1.263 2.874,0.775 0.75,-0.304 1.577,-0.421 2.396,-0.55 -0.943,0.532 -1.88,1.075 -2.834,1.582 -0.175,0.093 -0.459,0.125 -0.632,0.047 -0.92,-0.413 -1.887,-0.396 -2.846,-0.322 -1.549,0.118 -3.057,0.457 -4.517,1.01 -0.951,0.359 -1.92,0.667 -2.881,0.998 -0.734,0.254 -0.884,1.023 -0.301,1.558 0.586,0.539 1.324,0.744 2.057,0.61 1.698,-0.318 3.377,-0.737 5.062,-1.122 0.717,-0.165 1.471,-0.259 2.132,-0.555 0.755,-0.337 1.407,-0.891 2.133,-1.3 1.028,-0.581 2.064,-1.153 3.132,-1.653 0.571,-0.268 1.215,-0.376 1.867,-0.461 -0.425,0.4 -0.913,0.754 -1.261,1.213 -0.497,0.656 -0.902,1.383 -1.329,2.09 -0.371,0.612 -0.844,1.097 -1.516,1.381 -0.373,0.158 -0.56,0.685 -0.352,1.008 0.072,0.112 0.306,0.226 0.415,0.189 1.008,-0.347 2.037,-0.661 3,-1.113 1.146,-0.536 2.361,-0.933 3.371,-1.767 1.186,-0.98 1.979,-2.22 2.655,-3.559 0.179,-0.354 0.275,-0.756 0.493,-1.079 0.189,-0.279 0.466,-0.53 0.756,-0.705 0.918,-0.554 1.938,-0.78 2.998,-0.926 C -2.259,0.496 -1.279,0.216 -0.29,0.002 -0.22,-0.013 -0.142,0 0,0 M 9.013,-1.77 C 8.212,-1.712 7.42,-1.633 6.626,-1.601 4.239,-1.499 1.909,-1.921 -0.415,-2.397 -1.374,-2.594 -2.007,-3.225 -2.713,-3.94 1.469,-4.233 5.381,-3.753 9.013,-1.77 M -8.07,2.551 c -0.697,2.221 -4.658,5.57 -6.498,5.526 0.878,-2.776 4.94,-5.52 6.498,-5.526 m -11.028,3.387 c 0.015,0.056 0.032,0.112 0.048,0.169 -0.342,0.135 -0.682,0.279 -1.028,0.402 -0.433,0.154 -0.875,0.275 -1.307,0.431 -0.529,0.191 -1.035,0.473 -1.579,0.589 -1.398,0.301 -2.807,0.559 -4.221,0.776 -0.486,0.076 -0.963,-0.113 -1.363,-0.484 3.176,-0.57 6.094,-2.34 9.45,-1.883 M 3.049,4.178 c 1.18,-1.745 6.722,-4.183 8.092,-4.111 -0.225,0.194 -0.39,0.379 -0.591,0.505 -1.601,1 -3.2,2.005 -4.822,2.97 C 4.931,4.015 4.083,4.399 3.049,4.178 M -10.037,1.205 c -0.177,0.102 -0.229,0.147 -0.289,0.163 -2.518,0.665 -5.04,1.322 -7.556,1.996 -0.485,0.13 -0.785,-0.056 -1.103,-0.511 2.977,-0.571 5.739,-1.883 8.948,-1.648 m 8.128,3.933 C -2.201,5.781 -2.744,6.061 -3.36,6.215 -3.48,6.244 -3.773,6.064 -3.766,6.036 c 0.127,-0.509 0.247,-1.015 0.805,-1.278 0.525,-0.249 0.741,0.148 1.052,0.38"
             style="fill:#13582d;fill-opacity:1;fill-rule:nonzero;stroke:none"
             id="path30"
             inkscape:connector-curvature="0" />
        </g>
        <g
           id="g32"
           transform="translate(180.4035,678.7419)">
          <path
             d="M 0,0 C 1.184,-0.655 2.39,-1.275 3.547,-1.975 4.535,-2.572 5.466,-3.262 6.428,-3.902 6.578,-4 6.817,-4.15 6.922,-4.096 c 0.683,0.35 1.352,0.122 1.995,-0.041 1.202,-0.306 2.43,-0.589 3.562,-1.076 1.156,-0.498 2.023,-1.435 2.706,-2.498 0.268,-0.417 -0.142,-1.14 -0.632,-1.094 -0.84,0.08 -1.684,0.2 -2.503,0.394 -0.692,0.164 -1.367,0.426 -2.026,0.701 -0.348,0.145 -0.647,0.412 -0.966,0.623 -0.044,-0.045 -0.088,-0.089 -0.132,-0.134 1.496,-1.944 2.989,-3.889 4.489,-5.83 0.09,-0.118 0.214,-0.287 0.327,-0.292 0.505,-0.023 0.716,-0.268 0.719,-0.757 10e-4,-0.07 0.132,-0.173 0.221,-0.202 1.262,-0.405 2.136,-1.335 3.048,-2.221 0.784,-0.762 1.594,-1.497 2.366,-2.272 0.65,-0.652 1.269,-1.336 1.886,-2.021 0.21,-0.235 0.041,-1.025 -0.248,-1.316 -0.336,-0.341 -0.889,-0.418 -1.222,-0.104 -0.439,0.412 -0.828,0.876 -1.243,1.314 -0.346,0.365 -0.697,0.725 -1.045,1.088 -0.049,-0.04 -0.097,-0.08 -0.145,-0.12 0.161,-0.23 0.332,-0.452 0.479,-0.691 0.601,-0.972 1.126,-1.999 1.806,-2.911 0.829,-1.113 1.331,-2.356 1.745,-3.648 0.111,-0.35 0.128,-0.755 0.086,-1.122 -0.063,-0.55 -0.604,-0.781 -0.92,-0.376 -0.91,1.169 -2.265,1.947 -2.846,3.413 -0.623,1.573 -1.355,3.103 -2.044,4.649 -0.129,0.289 -0.282,0.567 -0.482,0.965 -0.361,-0.686 -0.34,-1.308 -0.352,-1.93 -0.005,-0.254 -0.047,-0.531 -0.159,-0.755 -0.279,-0.556 -0.304,-0.548 -0.802,-0.384 -0.231,0.637 -0.473,1.196 -0.635,1.776 -0.422,1.508 -1.001,3.021 -0.727,4.607 0.18,1.05 -0.215,1.805 -0.755,2.591 -0.153,0.222 -0.174,0.531 -0.293,0.784 -0.125,0.263 -0.272,0.523 -0.448,0.754 -0.757,0.991 -1.525,1.972 -2.294,2.953 -0.089,0.113 -0.211,0.201 -0.399,0.378 -0.045,-0.251 -0.1,-0.408 -0.096,-0.564 0.035,-1.324 0.075,-2.647 0.131,-3.97 0.004,-0.13 0.115,-0.36 0.192,-0.366 0.601,-0.048 0.525,-0.482 0.467,-0.842 -0.157,-0.961 -0.576,-1.775 -1.477,-2.257 -0.105,-0.056 -0.251,-0.102 -0.359,-0.077 -0.601,0.139 -1.372,1.227 -1.338,1.86 0.053,1.011 0.556,1.707 1.369,1.831 0.375,0.056 0.469,0.252 0.44,0.587 -0.076,0.887 -0.151,1.775 -0.211,2.665 -0.04,0.622 0.036,1.217 0.559,1.678 -1.673,2.423 -3.69,4.447 -6.265,5.907 0.118,-0.143 0.254,-0.277 0.354,-0.434 0.456,-0.711 0.921,-1.418 1.346,-2.148 0.455,-0.781 0.822,-1.602 1.51,-2.243 0.169,-0.158 0.101,-0.709 -0.023,-1.011 -0.175,-0.43 -0.589,-0.183 -0.803,-0.03 -0.708,0.503 -1.42,1.019 -2.039,1.623 -0.9,0.88 -1.768,1.804 -2.564,2.78 -0.818,1.005 -1.611,2.039 -2.021,3.315 -0.116,0.359 -0.422,0.732 -0.744,0.94 -1.416,0.923 -2.846,1.816 -4.455,2.404 -1.752,0.64 -3.449,1.434 -5.2,2.076 -1.303,0.476 -2.657,0.809 -3.983,1.222 -0.223,0.07 -0.443,0.197 -0.618,0.349 -0.061,0.054 -0.034,0.333 0.043,0.392 0.157,0.121 0.411,0.271 0.56,0.219 2.228,-0.774 4.447,-1.575 6.664,-2.379 1.502,-0.546 2.993,-1.12 4.501,-1.648 0.198,-0.07 0.481,0.008 0.696,0.09 1.136,0.431 2.271,0.875 3.515,0.776 C 0.555,3.736 1.86,3.374 3.067,2.725 3.916,2.27 4.739,1.766 5.56,1.263 5.799,1.118 6.039,0.929 6.191,0.7 6.295,0.545 6.337,0.231 6.248,0.092 6.165,-0.034 5.827,-0.117 5.67,-0.053 4.705,0.337 3.763,0.163 2.78,0.018 2.05,-0.09 1.278,0.09 0.525,0.143 0.367,0.154 0.211,0.168 0.053,0.181 0.035,0.121 0.018,0.06 0,0 M 3.622,0.807 C 3.633,0.861 3.643,0.916 3.653,0.971 2.859,1.277 2.082,1.652 1.263,1.871 0.464,2.086 -0.374,2.175 -1.202,2.252 -1.785,2.307 -2.404,2.365 -2.95,1.899 -0.816,0.892 1.324,0.325 3.622,0.807 m 5.534,-6.754 c 1.335,-1.475 3.048,-1.623 4.658,-2.019 -1.289,1.155 -2.792,1.817 -4.658,2.019 M 3.194,-5.412 C 3.231,-5.381 3.268,-5.35 3.305,-5.318 2.547,-3.681 1.132,-2.05 0.092,-1.804 1.126,-3.007 2.16,-4.21 3.194,-5.412 m 11.164,-11.626 c -0.076,-0.014 -0.152,-0.028 -0.227,-0.043 0.204,-0.99 0.409,-1.98 0.64,-3.103 0.766,1.304 -0.012,2.191 -0.413,3.146 m -5.586,2.056 c -0.215,0.189 -0.343,0.326 -0.496,0.429 -0.141,0.095 -0.308,0.152 -0.464,0.226 -0.071,-0.177 -0.243,-0.393 -0.192,-0.522 0.134,-0.348 0.366,-0.66 0.559,-0.986 0.062,0.008 0.124,0.017 0.185,0.025 0.136,0.273 0.27,0.548 0.408,0.828 m 7.54,-2.679 c -0.087,-0.087 -0.174,-0.174 -0.26,-0.261 l 1.839,-1.874 c 0.054,0.049 0.109,0.098 0.165,0.148 -0.582,0.662 -1.162,1.324 -1.744,1.987"
             style="fill:#13582d;fill-opacity:1;fill-rule:nonzero;stroke:none"
             id="path34"
             inkscape:connector-curvature="0" />
        </g>
        <g
           id="g36"
           transform="translate(138.6548,683.7429)">
          <path
             d="M 0,0 C -0.562,0.141 -1.043,0.255 -1.521,0.383 -2.391,0.616 -3.255,0.869 -4.129,1.088 -4.589,1.203 -5.121,1.079 -5.461,1.564 -5.505,1.627 -5.753,1.588 -5.886,1.541 -6.688,1.261 -7.51,1.021 -8.272,0.658 -8.8,0.407 -9.245,-0.019 -9.727,-0.366 c 0.027,-0.05 0.054,-0.099 0.081,-0.148 0.524,0 1.049,0.02 1.572,-0.005 0.881,-0.041 1.767,-0.076 2.64,-0.193 0.222,-0.03 0.506,-0.33 0.579,-0.562 0.095,-0.299 -0.074,-0.504 -0.43,-0.713 -1.189,-0.7 -2.505,-0.759 -3.8,-0.953 -0.899,-0.134 -1.805,-0.213 -2.704,-0.341 -0.955,-0.137 -1.827,0.107 -2.685,0.495 -0.178,0.08 -0.443,0.112 -0.615,0.039 -0.883,-0.376 -1.776,-0.734 -2.372,-1.575 -0.08,-0.112 -0.536,0.043 -0.818,0.074 -0.017,0.092 -0.034,0.183 -0.051,0.275 -0.855,-0.459 -1.726,-0.891 -2.561,-1.384 -1.185,-0.697 -2.346,-1.435 -3.511,-2.167 -0.299,-0.187 -0.567,-0.421 -0.857,-0.624 -0.176,-0.124 -0.308,-0.489 -0.591,-0.178 -0.274,0.301 -0.131,0.566 0.16,0.759 0.533,0.354 1.07,0.704 1.615,1.039 1.383,0.852 2.762,1.708 4.159,2.536 0.448,0.264 0.949,0.439 1.423,0.66 1.125,0.524 2.259,1.032 3.368,1.588 0.524,0.262 0.991,0.636 1.502,0.928 0.172,0.097 0.398,0.104 0.603,0.132 0.554,0.08 0.787,0.447 0.9,0.978 0.129,0.61 0.359,1.221 0.663,1.766 0.493,0.886 1.037,1.753 1.641,2.568 0.881,1.191 2.104,2.009 3.335,2.79 0.555,0.351 1.166,0.632 1.784,0.855 0.264,0.095 0.661,0.046 0.899,-0.099 C -3.663,8.092 -3.61,7.615 -3.718,7.432 -4.744,5.701 -5.811,3.993 -6.873,2.284 -6.958,2.147 -7.102,2.048 -7.19,1.851 c 0.625,0.211 1.244,0.439 1.875,0.627 0.392,0.115 0.806,0.154 1.203,0.255 0.174,0.045 0.332,0.16 0.498,0.243 0.146,0.072 0.311,0.23 0.437,0.203 0.967,-0.205 1.59,0.305 2.182,0.954 C 0.64,5.928 2.703,7.129 4.806,8.268 5.185,8.474 5.581,8.654 5.984,8.805 6.158,8.87 6.471,8.911 6.544,8.82 6.688,8.641 6.84,8.287 6.755,8.139 6.241,7.245 5.703,6.356 5.079,5.535 4.801,5.168 4.307,4.964 3.866,4.655 4.133,4.635 4.415,4.568 4.685,4.602 c 1.142,0.149 2.282,0.327 3.423,0.495 0.094,0.014 0.199,0.063 0.28,0.038 1.46,-0.459 2.571,0.497 3.803,0.941 1.377,0.496 2.714,1.117 4.112,1.54 0.722,0.218 1.539,0.128 2.312,0.174 1.133,0.066 2.265,0.144 3.398,0.18 0.225,0.007 0.573,-0.091 0.658,-0.25 C 22.835,7.411 22.604,7.159 22.304,7.007 21.468,6.587 20.57,6.252 19.811,5.72 18.873,5.061 17.949,4.457 16.74,4.357 17.492,3.729 18.207,3.135 19.195,2.963 20.28,2.773 21.361,2.541 22.427,2.261 22.876,2.143 23.449,2.005 23.356,1.319 23.338,1.187 23.109,0.956 23.05,0.977 21.712,1.451 20.398,0.827 19.075,0.912 17.732,0.999 16.388,1.093 15.052,1.245 14.269,1.335 13.464,1.45 12.74,1.733 12.113,1.978 11.568,2.454 11.019,2.871 10.646,3.154 10.383,3.639 9.976,3.81 9.315,4.086 8.573,4.339 7.874,4.315 6.428,4.266 4.988,4.029 3.547,3.867 3.477,3.859 3.411,3.813 3.169,3.712 3.957,3.57 4.59,3.488 5.207,3.338 6.006,3.143 6.791,2.891 7.583,2.667 7.777,2.612 7.981,2.588 8.169,2.52 8.412,2.432 8.68,2.356 8.866,2.193 8.999,2.078 9.013,1.826 9.079,1.635 8.89,1.591 8.691,1.484 8.514,1.51 7.78,1.618 7.262,1.085 6.631,0.928 5.752,0.708 4.831,0.452 3.946,0.504 2.483,0.59 1.035,0.911 -0.42,1.127 -0.567,1.148 -0.719,1.13 -0.876,1.088 -0.09,0.751 0.585,0.111 1.574,0.391 2.087,0.538 2.965,-0.044 3.157,-0.562 3.298,-0.94 3.526,-1.336 3.507,-1.714 3.464,-2.613 2.81,-3.179 1.92,-3.189 1.018,-3.2 0.401,-2.931 -0.096,-2.005 -0.494,-1.264 -0.533,-0.781 0,0 m -11.383,0.143 c 0.784,-0.005 1.195,0.32 1.601,0.704 0.531,0.503 1.107,0.958 1.651,1.446 0.377,0.338 0.818,0.645 1.084,1.059 0.733,1.133 1.387,2.317 2.066,3.468 0.008,-0.001 -0.032,0.02 -0.06,0.01 C -6.645,6.238 -7.87,5.127 -8.926,3.845 -9.602,3.023 -10.124,2.072 -10.713,1.177 -10.916,0.87 -11.113,0.559 -11.383,0.143 M 19.543,1.781 C 18.571,2.299 17.728,2.778 16.859,3.2 16.295,3.475 15.707,3.74 15.101,3.876 14.404,4.03 13.676,4.059 12.959,4.103 12.389,4.137 11.817,4.109 11.246,4.109 11.221,4.04 11.197,3.972 11.172,3.904 11.764,3.52 12.309,2.985 12.956,2.789 14.213,2.409 15.522,2.175 16.822,1.968 17.692,1.829 18.586,1.841 19.543,1.781 M -0.952,2.484 C 0.242,2.232 1.323,1.973 2.416,1.786 3.268,1.641 4.139,1.489 4.994,1.525 5.673,1.553 6.339,1.86 7.011,2.044 6.998,2.162 6.985,2.281 6.972,2.4 4.387,2.982 1.81,3.792 -0.952,2.484 m 21.064,4.064 c -2.481,0.45 -5.299,-0.243 -7.215,-1.65 1.641,-0.095 3.211,-0.053 4.712,0.31 0.89,0.214 1.673,0.878 2.503,1.34 M -6.512,-1.19 c -2.078,0.489 -5.151,-0.165 -6.397,-0.912 0.679,-0.36 5.724,0.337 6.397,0.912 M 0.986,4.496 C 2.496,4.279 5.187,6.067 5.439,7.424 3.799,6.605 2.295,5.704 0.986,4.496 m 0.385,-6.555 c 0.756,0.01 1.277,0.33 1.141,0.595 C 2.373,-1.195 1.958,-0.813 1.794,-0.868 1.447,-0.985 1.185,-1.354 0.889,-1.62 1.088,-1.8 1.286,-1.981 1.371,-2.059"
             style="fill:#13582d;fill-opacity:1;fill-rule:nonzero;stroke:none"
             id="path38"
             inkscape:connector-curvature="0" />
        </g>
        <g
           id="g40"
           transform="translate(101.1592,668.2079)">
          <path
             d="m 0,0 c -0.311,-0.147 -0.455,-0.234 -0.612,-0.285 -1.036,-0.334 -1.4,-0.016 -1.672,0.901 -0.178,0.6 -0.114,1.299 -0.038,1.939 0.083,0.7 0.699,1.007 1.338,0.739 C -0.501,3.089 -0.013,2.88 0.427,2.601 0.637,2.47 0.884,2.155 0.863,1.951 0.811,1.456 0.581,0.983 0.482,0.489 0.42,0.183 0.386,-0.172 0.479,-0.46 0.782,-1.393 0.653,-2.324 0.572,-3.261 0.558,-3.417 0.601,-3.577 0.618,-3.736 c 0.05,-0.016 0.099,-0.031 0.149,-0.046 0.227,0.38 0.516,0.737 0.669,1.145 0.445,1.185 0.805,2.401 1.254,3.586 C 3.657,3.497 5.162,5.695 7.186,7.521 7.391,7.706 7.815,7.807 8.08,7.735 8.484,7.625 8.707,7.22 8.647,6.788 8.582,6.307 8.462,5.824 8.297,5.366 7.968,4.451 7.507,3.576 7.258,2.642 6.924,1.387 6.094,0.588 5.121,-0.151 3.225,-1.589 1.799,-3.435 0.587,-5.46 0.528,-5.557 0.489,-5.667 0.451,-5.774 0.427,-5.841 0.421,-5.915 0.388,-6.09 c 0.447,0.477 0.848,0.862 1.2,1.288 0.433,0.527 0.996,0.762 1.637,0.931 0.89,0.237 1.705,0.654 2.257,1.427 0.233,0.328 0.465,0.285 0.725,0.125 C 6.468,-2.48 6.491,-2.697 6.346,-2.991 5.914,-3.869 5.567,-4.791 5.096,-5.646 4.409,-6.892 3.264,-7.714 2.17,-8.573 1.726,-8.921 1.26,-9.246 0.856,-9.634 c -0.446,-0.429 -0.953,-0.603 -1.547,-0.549 -0.439,0.039 -0.714,-0.158 -0.921,-0.524 -0.204,-0.362 -0.438,-0.708 -0.735,-1.185 0.251,-0.054 0.443,-0.142 0.628,-0.127 1.375,0.109 2.751,0.218 4.121,0.376 0.269,0.031 0.548,0.232 0.765,0.42 0.597,0.517 0.878,0.53 1.467,-10e-4 0.42,-0.378 0.863,-0.724 0.951,-1.35 0.077,-0.536 -0.095,-0.967 -0.542,-1.21 -0.544,-0.297 -1.124,-0.429 -1.683,0.048 -0.208,0.177 -0.479,0.279 -0.722,0.416 -0.049,-0.041 -0.097,-0.081 -0.146,-0.121 0.034,0.345 0.067,0.69 0.108,1.131 -0.495,-0.097 -0.929,-0.184 -1.363,-0.268 -1.128,-0.218 -2.256,-0.438 -3.385,-0.648 -0.123,-0.023 -0.281,-0.022 -0.384,0.035 -0.461,0.257 -0.635,0.04 -0.908,-0.348 -0.714,-1.018 -0.962,-2.181 -1.268,-3.342 -0.225,-0.855 -0.543,-1.684 -0.809,-2.529 -0.062,-0.198 -0.081,-0.408 -10e-4,-0.656 0.684,0.984 1.354,1.979 2.058,2.948 0.477,0.655 0.98,1.295 1.515,1.904 0.432,0.492 0.751,0.374 1.073,-0.207 0.417,-0.75 0.035,-1.443 -0.064,-2.152 -0.28,-2.011 -1.329,-3.645 -2.747,-5.005 -1.007,-0.966 -2.234,-1.7 -3.3,-2.612 -0.397,-0.34 -0.673,-0.863 -0.9,-1.351 -0.234,-0.499 -0.316,-1.066 -0.512,-1.586 -0.17,-0.449 -0.462,-0.857 -0.595,-1.313 -0.166,-0.572 -0.278,-1.17 -0.322,-1.765 -0.093,-1.257 -0.128,-2.52 -0.184,-3.78 -0.035,-0.796 -0.085,-1.593 -0.086,-2.391 -0.002,-0.821 0.077,-1.644 0.057,-2.464 -0.009,-0.326 -0.192,-0.646 -0.297,-0.968 -0.078,-0.003 -0.156,-0.006 -0.234,-0.01 -0.085,0.218 -0.243,0.437 -0.245,0.656 -0.014,1.666 -0.025,3.332 0.015,4.997 0.033,1.432 0.117,2.864 0.215,4.295 0.033,0.484 0.085,1.004 0.288,1.432 0.315,0.665 -0.015,1.075 -0.348,1.567 -0.427,0.631 -0.7,1.381 -1.181,1.961 -0.958,1.152 -0.854,2.421 -0.644,3.75 0.161,1.019 0.238,2.054 0.424,3.069 0.056,0.303 0.291,0.685 0.551,0.813 0.377,0.187 0.539,-0.234 0.665,-0.521 0.381,-0.861 0.565,-1.769 0.758,-2.693 0.262,-1.252 0.785,-2.45 1.199,-3.681 0.756,0.252 0.93,0.844 1.085,1.39 0.157,0.556 0.197,1.146 0.273,1.722 0.069,0.521 0.003,0.99 -0.35,1.439 -0.79,1.002 -0.951,2.187 -0.872,3.425 0.043,0.681 0.106,1.368 0.074,2.048 -0.064,1.36 0.211,2.661 0.545,3.962 0.155,0.602 0.21,1.233 0.419,1.812 0.09,0.246 0.439,0.45 0.715,0.546 0.096,0.033 0.438,-0.297 0.474,-0.497 0.19,-1.052 0.284,-2.12 0.479,-3.171 0.133,-0.711 0.375,-1.4 0.569,-2.099 0.061,0.003 0.123,0.006 0.185,0.01 0.371,0.618 0.739,1.24 1.116,1.854 0.492,0.802 1.026,1.579 1.474,2.403 0.299,0.55 0.59,1.103 0.601,1.792 0.007,0.455 0.31,0.909 0.502,1.354 0.188,0.433 0.44,0.842 0.597,1.285 0.161,0.456 0.273,0.934 0.349,1.412 0.136,0.856 0.28,1.716 0.32,2.579 C 0.223,-1.317 0.08,-0.718 0,0 m -6.34,-23.457 c 2.391,1.045 5.033,5.415 4.469,7.395 -1.756,-2.323 -3.409,-4.59 -4.469,-7.395 M 8.121,6.694 C 6.693,6.405 3.517,1.406 3.498,-0.4 4.087,0.09 4.719,0.562 5.283,1.104 5.695,1.5 6.097,1.948 6.358,2.449 6.782,3.26 7.093,4.132 7.442,4.982 7.669,5.53 7.88,6.085 8.121,6.694 M -6.363,-10.652 c -1.239,-2.36 -0.578,-4.872 -0.723,-7.308 -0.035,-0.586 0.241,-1.189 0.373,-1.785 0.061,0.008 0.122,0.016 0.183,0.023 0.074,0.233 0.164,0.46 0.217,0.696 0.209,0.932 0.119,1.942 0.723,2.767 0.28,0.383 0.223,0.757 0.097,1.184 -0.282,0.95 -0.536,1.909 -0.743,2.877 -0.107,0.501 -0.088,1.03 -0.127,1.546 m 5.875,1.618 c 0.044,-0.046 0.089,-0.09 0.133,-0.136 0.54,0.413 1.091,0.811 1.615,1.242 0.915,0.752 1.855,1.484 2.7,2.31 0.402,0.391 0.61,0.979 0.974,1.594 -1.379,-0.478 -2.718,-0.648 -3.489,-1.77 -0.713,-1.033 -1.571,-1.998 -1.933,-3.24 m -10.13,-11.125 c -0.374,-1.288 -0.807,-2.614 -0.52,-3.846 0.254,-1.095 1.1,-2.055 1.7,-3.065 0.046,-0.078 0.222,-0.08 0.38,-0.132 0.053,1.138 -0.08,2.148 -0.497,3.183 -0.482,1.199 -0.703,2.503 -1.063,3.86"
             style="fill:#13582d;fill-opacity:1;fill-rule:nonzero;stroke:none"
             id="path42"
             inkscape:connector-curvature="0" />
        </g>
        <g
           id="g44"
           transform="translate(202.8494,639.2379)">
          <path
             d="m 0,0 c -0.195,-1.105 -0.42,-2.205 -0.581,-3.315 -0.253,-1.742 -0.456,-3.49 -0.696,-5.235 -0.05,-0.35 -0.152,-0.709 -0.604,-0.763 -0.488,-0.058 -1.044,0.272 -1.216,0.75 -0.352,0.968 -0.359,1.953 -0.229,2.971 0.221,1.721 0.719,3.34 1.576,4.846 0.368,0.647 0.76,1.282 1.137,1.926 0.396,0.679 0.278,1.417 0.227,2.146 -0.008,0.11 -0.112,0.241 -0.076,0.32 0.328,0.724 -0.042,1.324 -0.337,1.925 -0.373,0.757 -0.806,1.485 -1.166,2.248 -0.081,0.172 0.037,0.436 0.064,0.659 C -1.683,8.422 -1.405,8.43 -1.264,8.295 -1.102,8.141 -1.058,7.86 -0.971,7.632 -0.523,6.45 -0.012,5.289 0.349,4.081 0.764,2.689 1.666,1.641 2.552,0.566 3.93,-1.112 5.109,-2.917 5.717,-5.009 5.942,-5.79 5.762,-6.68 5.861,-7.508 c 0.116,-0.964 0.353,-1.912 0.501,-2.873 0.049,-0.307 -0.009,-0.63 -0.017,-0.947 -0.325,0.095 -0.75,0.094 -0.953,0.306 -0.358,0.374 -0.587,0.875 -0.859,1.329 -0.925,1.545 -1.829,3.105 -2.088,4.928 -0.068,0.484 -0.04,0.984 -0.047,1.477 -0.02,1.485 -0.763,2.706 -1.49,3.944 0.112,-0.604 0.256,-1.203 0.329,-1.81 0.103,-0.861 0.142,-1.727 0.226,-2.589 0.127,-1.312 0.259,-2.624 0.405,-3.934 0.063,-0.558 0.108,-1.128 0.267,-1.661 0.093,-0.313 0.422,-0.549 0.596,-0.848 0.447,-0.765 0.843,-1.559 1.308,-2.312 0.154,-0.252 0.429,-0.456 0.691,-0.612 1.364,-0.81 1.714,-1.574 1.133,-2.956 -0.133,-0.32 -0.318,-0.499 -0.689,-0.251 -0.105,0.07 -0.31,0.04 -0.449,-0.004 -0.785,-0.251 -1.279,0.058 -1.439,0.839 -0.131,0.643 -0.438,1.266 -0.005,1.905 0.025,0.035 0.012,0.141 -0.018,0.159 -0.885,0.545 -0.969,1.566 -1.516,2.386 -0.046,-0.469 -0.09,-0.938 -0.136,-1.406 -0.155,-1.556 -0.341,-3.109 -0.452,-4.667 -0.042,-0.593 0.116,-1.196 0.129,-1.795 0.039,-1.949 0.085,-3.899 0.067,-5.848 -0.013,-1.482 -0.544,-2.857 -1.089,-4.211 -0.2,-0.496 -0.456,-0.977 -0.752,-1.421 -0.104,-0.154 -0.439,-0.284 -0.606,-0.23 -0.161,0.051 -0.333,0.347 -0.344,0.546 -0.078,1.267 -0.113,2.536 -0.16,3.805 -0.027,0.744 -0.049,1.488 -0.075,2.232 -0.091,0.019 -0.181,0.037 -0.271,0.056 -0.388,-1.09 -0.956,-2.153 -1.116,-3.275 -0.224,-1.55 -0.536,-3.019 -1.423,-4.326 -0.106,-0.154 -0.221,-0.301 -0.355,-0.485 -0.947,0.761 -0.88,1.762 -0.753,2.742 0.247,1.915 1.035,3.65 1.96,5.314 0.604,1.083 1.327,2.099 1.987,3.152 0.098,0.157 0.154,0.346 0.211,0.525 0.362,1.109 0.715,2.222 1.08,3.331 0.045,0.135 0.135,0.352 0.222,0.361 0.527,0.057 0.564,0.508 0.619,0.835 0.131,0.77 0.165,1.559 0.129,2.358 -0.421,-0.613 -0.838,-1.23 -1.267,-1.835 -0.141,-0.198 -0.285,-0.432 -0.487,-0.541 -0.548,-0.295 -0.642,-0.784 -0.711,-1.329 -0.076,-0.606 -0.568,-1.05 -1.112,-1.074 -1.272,-0.057 -2.142,1.277 -1.602,2.458 0.512,1.122 1.471,1.27 2.241,0.299 0.277,-0.351 0.467,-0.294 0.651,-0.013 0.764,1.162 1.565,2.305 2.22,3.528 0.24,0.453 0.158,1.106 0.135,1.664 -0.02,0.458 0.045,0.837 0.29,1.236 0.149,0.244 0.156,0.61 0.136,0.915 -0.053,0.867 -0.157,1.73 -0.235,2.595 -0.143,1.539 -0.27,3.078 -0.43,4.615 C 0.416,-0.609 0.271,-0.308 0.181,-0.003 0.12,-0.002 0.061,-0.001 0,0 m -0.771,-28.282 c 1.298,2.504 1.027,5.174 0.807,7.837 -1.133,-2.523 -0.692,-5.209 -0.807,-7.837 M -0.905,-1.69 c -1.093,-1.686 -1.517,-3.529 -1.592,-5.456 -0.019,-0.512 -0.018,-1.083 0.641,-1.587 0.327,2.429 0.639,4.736 0.951,7.043 m 4.124,-1.208 c -0.207,-2.116 0.423,-3.897 1.487,-5.7 -0.022,2.081 0.002,4.037 -1.487,5.7 m -7.874,-26.909 c 0.609,0.455 0.848,1.479 0.619,2.498 -0.207,-0.833 -0.412,-1.665 -0.619,-2.498 m 1.306,14.112 c -0.083,-0.494 -0.164,-0.862 -0.194,-1.235 -0.009,-0.108 0.135,-0.229 0.21,-0.345 0.116,0.077 0.276,0.127 0.34,0.234 0.274,0.446 0.191,0.853 -0.356,1.346"
             style="fill:#13582d;fill-opacity:1;fill-rule:nonzero;stroke:none"
             id="path46"
             inkscape:connector-curvature="0" />
        </g>
        <g
           id="g48"
           transform="translate(178.5568,586.1177)">
          <path
             d="m 0,0 c -0.636,-0.037 -0.802,-0.698 -1.185,-1.105 -1.878,-1.998 -3.643,-4.126 -6.07,-5.513 -0.681,-0.389 -1.431,-0.655 -2.143,-0.995 -0.264,-0.126 -0.492,-0.375 -0.766,-0.433 -0.417,-0.089 -0.873,-0.128 -1.288,-0.053 -0.168,0.031 -0.426,0.37 -0.128,0.697 0.168,0.187 0.262,0.449 0.361,0.689 0.255,0.626 0.706,1.068 1.279,1.396 1.605,0.917 3.254,1.765 4.809,2.761 1.342,0.862 2.574,1.892 3.863,2.84 0.357,0.264 0.736,0.5 1.09,0.897 C -0.554,1.22 -0.953,1.357 -1.303,1.278 -2.11,1.099 -3.024,1.218 -3.632,0.399 -4.024,-0.129 -4.595,-0.035 -5.166,0.326 c -0.631,0.398 -1.05,0.899 -1.037,1.633 0.005,0.278 0.233,0.683 0.472,0.803 0.602,0.301 1.246,0.355 1.896,-0.015 0.431,-0.245 0.907,-0.384 0.47,-1.172 0.076,0.026 0.152,0.053 0.227,0.08 0.351,0.11 0.712,0.193 1.049,0.335 1.028,0.431 2.06,0.066 3.065,-0.045 C 1.696,1.866 2.202,2.064 2.752,2.418 3.483,2.889 4.271,3.275 4.98,3.774 5.651,4.245 6.253,4.815 6.882,5.343 7.239,5.64 7.597,5.936 7.946,6.244 8.098,6.376 8.228,6.534 8.308,6.772 7.92,6.609 7.54,6.42 7.143,6.284 6.256,5.98 5.351,5.726 4.469,5.407 3.519,5.063 2.584,4.677 1.65,4.293 1.322,4.158 1.019,4.116 0.795,4.424 0.714,4.535 0.681,4.807 0.754,4.885 1.341,5.516 1.91,6.178 2.575,6.719 c 1.641,1.335 3.518,2.18 5.629,2.467 0.505,0.069 1.022,0.08 1.518,0.19 0.677,0.15 1.358,0.263 1.838,0.907 0.221,0.296 0.761,0.337 1.036,0.614 0.82,0.824 1.594,1.697 2.364,2.57 0.699,0.793 1.393,1.594 2.045,2.424 0.381,0.484 0.666,1.041 1.012,1.551 0.21,0.308 0.455,0.59 0.734,0.946 0.208,-0.221 0.354,-0.374 0.529,-0.558 C 17.513,15.486 15.778,13.183 14.019,10.849 14.441,10.503 14.083,10.09 14.006,9.66 13.87,8.903 13.816,8.132 13.69,7.372 13.476,6.095 12.688,5.105 11.968,4.09 11.35,3.217 10.707,2.359 10.041,1.521 9.855,1.284 9.569,1.086 9.287,0.973 8.787,0.772 8.376,1.116 8.518,1.642 8.677,2.238 8.942,2.809 9.189,3.378 9.497,4.084 9.81,4.766 9.797,5.582 9.789,6.082 10.021,6.585 10.15,7.108 10.102,7.091 9.987,7.083 9.922,7.021 9.251,6.384 8.562,5.763 7.939,5.079 7.754,4.877 7.791,4.485 7.684,4.196 7.261,3.064 6.816,1.942 6.393,0.81 6.288,0.53 6.25,0.226 6.155,-0.06 6.068,-0.325 6.102,-0.468 6.402,-0.573 6.533,-0.619 6.693,-0.904 6.66,-1.037 6.486,-1.751 6.309,-2.474 6.028,-3.149 5.809,-3.678 5.29,-3.573 4.833,-3.464 4.478,-3.379 4.287,-3.235 4.369,-2.79 4.413,-2.549 4.191,-2.266 4.112,-1.996 3.871,-1.172 3.7,-0.412 4.63,0.203 4.982,0.436 5.092,1.039 5.308,1.475 5.548,1.959 5.784,2.445 6.093,3.08 5.336,2.585 4.668,2.278 4.264,1.556 3.154,-0.431 2.021,-2.416 0.471,-4.101 c -0.832,-0.905 -1.763,-1.725 -2.695,-2.531 -0.522,-0.45 -1.178,-0.433 -1.508,-0.1 -0.2,0.203 -0.27,0.359 -0.031,0.617 0.425,0.457 0.861,0.924 1.175,1.457 0.416,0.708 0.682,1.504 1.082,2.223 C -1.041,-1.599 -0.501,-0.803 0,0 m 10.637,4.543 c 1.19,1.331 1.995,2.779 1.964,4.585 C 12.101,8.53 11.668,7.896 11.22,7.272 10.634,6.456 10.395,5.573 10.637,4.543 m -8.5,-4.164 c -1.747,-1.198 -2.769,-2.14 -3.302,-4.396 0.744,0.379 3.203,3.654 3.302,4.396 M 3.229,5.91 c 1.8,0.538 3.66,0.932 5.205,2.099 C 6.514,7.763 4.753,7.128 3.229,5.91 M -6.278,-4.28 c -1.432,-0.766 -3.188,-0.999 -4.138,-2.528 1.536,0.59 3.032,1.246 4.138,2.528 M 5.454,-0.917 5.326,-0.782 C 5.16,-0.88 4.88,-0.954 4.852,-1.083 c -0.069,-0.32 -0.022,-0.665 -0.022,-1 0.077,-0.006 0.156,-0.013 0.235,-0.019 0.13,0.395 0.26,0.79 0.389,1.185"
             style="fill:#13582d;fill-opacity:1;fill-rule:nonzero;stroke:none"
             id="path50"
             inkscape:connector-curvature="0" />
        </g>
        <g
           id="g52"
           transform="translate(97.8124,607.0443)">
          <path
             d="M 0,0 C -0.008,0.602 -0.161,1.042 -0.472,1.511 -0.894,2.146 -1.181,2.886 -1.439,3.612 -1.669,4.264 -2.05,4.602 -2.735,4.737 -3.243,4.838 -3.719,5.113 -4.201,5.33 -4.497,5.462 -4.72,5.411 -4.869,5.124 -5.175,4.531 -6.077,4.536 -6.628,4.804 c -0.151,0.075 -0.285,0.184 -0.425,0.281 -0.633,0.44 -0.938,1.333 -0.678,2.058 0.051,0.147 0.19,0.341 0.32,0.369 0.632,0.14 1.282,0.335 1.91,0.29 0.292,-0.02 0.638,-0.499 0.799,-0.845 0.193,-0.415 0.434,-0.671 0.858,-0.816 0.559,-0.192 1.105,-0.425 1.656,-0.641 0.053,0.044 0.104,0.088 0.157,0.131 -0.181,0.283 -0.384,0.555 -0.537,0.852 -0.136,0.265 -0.2,0.565 -0.328,0.836 -0.082,0.172 -0.232,0.458 -0.333,0.45 -0.789,-0.063 -1.227,0.5 -1.758,0.905 -1.19,0.909 -2.377,1.814 -3.112,3.177 -0.618,1.149 -1.291,2.27 -1.896,3.426 -0.096,0.185 -0.041,0.549 0.089,0.719 0.088,0.113 0.502,0.128 0.649,0.021 0.833,-0.614 1.632,-1.278 2.439,-1.927 0.683,-0.551 1.361,-1.109 2.14,-1.744 0,0.253 0.02,0.349 -0.003,0.434 -0.434,1.565 0.023,3.066 0.33,4.577 0.216,1.064 0.462,2.122 0.655,3.192 0.095,0.523 0.362,0.597 0.831,0.456 -0.062,-1.318 0.606,-2.441 0.922,-3.654 0.236,-0.905 0.362,-1.845 0.445,-2.778 0.07,-0.791 0.113,-1.611 -0.022,-2.385 C -1.663,11.363 -2.04,10.579 -2.291,9.771 -2.359,9.551 -2.4,9.289 -2.348,9.072 -2.114,8.108 -1.887,7.139 -1.575,6.199 -1.238,5.184 -0.814,4.196 -0.415,3.202 -0.371,3.094 -0.237,3.024 -0.071,2.865 0.037,3.686 0.154,4.421 0.212,5.16 0.223,5.297 0.003,5.456 -0.118,5.6 c -0.304,0.362 -0.508,0.723 -0.085,1.145 0.071,0.07 0.097,0.195 0.122,0.3 C 0.134,7.96 0.896,8.532 1.803,8.35 2.092,8.292 2.412,8.017 2.573,7.752 3.265,6.623 2.976,5.141 1.531,4.896 1.156,4.832 1.018,4.623 1.025,4.223 1.042,3.198 1.013,2.172 0.99,1.146 0.981,0.78 0.813,0.369 0.929,0.056 c 0.522,-1.421 1.113,-2.819 1.693,-4.218 0.174,-0.419 0.392,-0.82 0.589,-1.229 0.075,0.023 0.151,0.045 0.227,0.068 -0.045,0.37 -0.052,0.748 -0.141,1.105 C 2.908,-2.654 2.825,-1.099 3.17,0.491 3.304,1.107 3.23,1.764 3.314,2.393 3.345,2.626 3.509,2.926 3.7,3.022 3.827,3.086 4.187,2.904 4.308,2.735 5.63,0.901 6.303,-1.117 5.988,-3.408 5.783,-4.901 5.583,-6.397 5.438,-7.898 c -0.029,-0.3 0.16,-0.65 0.323,-0.935 0.3,-0.522 0.639,-1.024 0.991,-1.513 0.556,-0.77 1.2,-1.485 1.69,-2.293 0.881,-1.455 1.92,-2.77 3.118,-3.969 0.28,-0.278 0.558,-0.573 0.757,-0.907 0.092,-0.157 -0.004,-0.425 -0.016,-0.643 -0.191,0.056 -0.464,0.05 -0.562,0.177 -1.265,1.66 -2.922,3.015 -3.852,4.937 -0.104,0.216 -0.297,0.391 -0.46,0.575 -0.5,0.566 -0.996,1.136 -1.514,1.685 -0.197,0.21 -0.371,0.427 -0.713,0.036 -0.253,-0.289 -0.735,-0.464 -1.138,-0.517 -1.356,-0.176 -2.582,0.22 -3.625,1.096 -1.107,0.928 -2.18,1.895 -3.262,2.851 -0.328,0.29 -0.532,0.618 -0.149,1.018 0.351,0.363 0.629,0.091 0.953,-0.08 0.375,-0.197 0.796,-0.303 1.187,-0.47 0.688,-0.295 1.347,-0.687 2.06,-0.891 0.886,-0.256 1.815,-0.364 2.726,-0.535 0.041,0.042 0.082,0.084 0.124,0.125 -0.423,0.647 -0.857,1.29 -1.265,1.947 -0.342,0.552 -0.648,1.129 -0.986,1.684 -0.063,0.103 -0.199,0.172 -0.316,0.228 -0.396,0.19 -0.847,0.303 -1.191,0.561 -0.888,0.669 -1.763,1.363 -2.579,2.116 -0.647,0.597 -1.208,1.293 -1.788,1.958 -0.358,0.41 -0.672,0.858 -1.026,1.272 -0.23,0.268 -0.411,0.557 -0.144,0.853 0.117,0.128 0.505,0.216 0.594,0.135 C -3.529,1.585 -2.147,1.095 -0.833,0.477 -0.564,0.35 -0.314,0.182 0,0 m 4.693,-6.667 c 0.048,0.159 0.098,0.277 0.119,0.399 0.104,0.613 0.204,1.227 0.302,1.841 0.236,1.478 0.441,2.96 -0.195,4.396 C 4.651,0.574 4.338,1.159 3.997,1.848 3.191,0.176 3.638,-4.809 4.693,-6.667 m -7.751,16.985 c 0.855,2.754 0.967,5.479 -0.251,8.152 -0.869,-2.748 -0.993,-5.474 0.251,-8.152 M -3.754,9.145 c -0.129,1.131 -0.592,2.016 -1.366,2.719 -0.739,0.671 -1.522,1.293 -2.287,1.934 -0.196,0.164 -0.397,0.32 -0.596,0.48 -0.044,-0.044 -0.088,-0.086 -0.132,-0.13 0.894,-2.108 2.24,-3.833 4.381,-5.003 m 3.458,-17.299 c 1.573,-1.371 3.045,-2.704 5.33,-2.17 -0.333,0.612 -0.822,0.939 -1.437,1.106 -1.257,0.341 -2.514,0.686 -3.893,1.064 M -2.771,0.52 c 0.781,-1.361 2.003,-1.958 3.115,-2.686 -0.401,1.58 -1.645,2.154 -3.115,2.686 M 1.83,6.684 C 1.762,6.924 1.846,7.425 1.289,7.454 0.724,7.483 0.72,7.037 0.686,6.629 0.648,6.178 0.898,5.909 1.281,5.895 1.641,5.881 1.892,6.14 1.83,6.684 M -5.96,5.557 C -5.859,5.988 -5.756,6.245 -5.757,6.5 -5.758,6.671 -5.869,6.934 -6.001,6.99 -6.192,7.07 -6.479,7.064 -6.661,6.969 -6.764,6.916 -6.831,6.55 -6.754,6.436 -6.534,6.113 -6.231,5.847 -5.96,5.557"
             style="fill:#13582d;fill-opacity:1;fill-rule:nonzero;stroke:none"
             id="path54"
             inkscape:connector-curvature="0" />
        </g>
        <g
           id="g56"
           transform="translate(112.8752,641.8748)">
          <path
             d="m 0,0 c 2.6,2.031 5.914,3.029 9.62,3.029 1.924,0 4.631,-0.393 6.306,-0.856 0.428,-0.106 0.677,-0.177 0.998,-0.142 0.036,-0.82 0.213,-3.065 0.499,-5.237 -0.178,-0.25 -0.713,-0.286 -0.962,-0.072 -0.535,2.423 -2.138,5.202 -7.305,5.202 -5.451,0 -10.082,-3.457 -10.082,-10.831 0,-7.483 4.739,-11.616 10.581,-11.616 4.596,0 6.627,2.994 7.447,5.095 0.25,0.179 0.784,0.107 0.926,-0.143 -0.249,-1.853 -1.175,-4.204 -1.71,-4.88 -0.427,-0.072 -0.854,-0.215 -1.246,-0.357 -0.785,-0.286 -3.35,-0.82 -5.63,-0.82 -3.206,0 -6.271,0.642 -8.872,2.388 -2.85,1.96 -5.059,5.202 -5.059,9.798 0,3.955 1.782,7.34 4.489,9.442"
             style="fill:#13582d;fill-opacity:1;fill-rule:nonzero;stroke:none"
             id="path58"
             inkscape:connector-curvature="0" />
        </g>
        <g
           id="g60"
           transform="translate(139.8432,637.7772)">
          <path
             d="m 0,0 c 0,-1.141 0.677,-1.996 1.852,-2.708 0.356,-0.214 0.464,-0.142 0.748,0.143 0.606,0.605 0.998,1.354 0.998,2.387 0,1.212 -0.712,2.28 -1.852,2.28 C 0.962,2.102 0,1.461 0,0 m 0.284,-4.595 c -1.032,-0.571 -2.173,-1.71 -2.173,-3.457 0,-2.352 1.996,-3.848 4.276,-3.848 1.175,0 2.316,0.534 3.35,1.46 0.355,0.358 0.248,0.57 0,0.963 -1.213,1.924 -2.958,3.705 -4.775,4.845 -0.285,0.179 -0.428,0.179 -0.678,0.037 m 5.345,4.275 c 0,-1.318 -1.176,-2.352 -2.316,-2.851 -0.32,-0.142 -0.32,-0.321 0.108,-0.57 1.602,-0.926 2.671,-2.138 3.811,-3.848 0.286,-0.427 0.428,-0.463 0.642,-0.142 0.748,1.282 1.781,3.242 2.28,4.31 0.463,0.962 0.463,1.425 -0.213,1.497 l -0.927,0.107 c -0.25,0.143 -0.25,0.642 0.036,0.784 h 1.246 c 1.854,0 3.814,0.035 4.881,0.107 0.25,-0.107 0.286,-0.642 0.036,-0.784 L 14.181,-1.924 C 12.755,-2.209 12.398,-2.53 11.294,-4.204 10.51,-5.344 9.62,-6.876 8.551,-8.48 8.159,-9.05 8.23,-9.227 8.835,-10.011 c 1.461,-1.889 2.922,-2.031 3.563,-2.031 0.749,0 1.747,0.32 2.566,0.926 0.249,-0.071 0.392,-0.32 0.285,-0.535 -1.175,-1.353 -2.957,-1.781 -4.346,-1.781 -1.283,0 -2.494,0.32 -2.958,0.712 -0.534,0.464 -1.033,1.105 -1.176,1.354 -0.106,0.214 -0.321,0.322 -0.605,0.036 -0.713,-0.784 -2.53,-2.102 -5.131,-2.102 -3.848,0 -5.38,2.601 -5.38,4.525 0,2.778 2.067,4.275 3.884,4.952 0.178,0.071 0.178,0.214 0,0.357 -0.606,0.463 -1.533,1.532 -1.533,2.85 0,2.352 1.96,3.777 3.884,3.777 2.387,0 3.741,-1.675 3.741,-3.349"
             style="fill:#13582d;fill-opacity:1;fill-rule:nonzero;stroke:none"
             id="path62"
             inkscape:connector-curvature="0" />
        </g>
        <g
           id="g64"
           transform="translate(171.2289,630.4551)">
          <path
             d="M 0,0 C 0.819,-1.674 1.603,-3.313 2.459,-4.882 H 2.53 c 0.961,1.676 1.853,3.529 2.743,5.345 l 3.349,6.806 c 1.639,3.242 2.637,5.202 2.708,6.841 1.211,-0.107 1.959,-0.107 2.672,-0.107 0.891,0 2.066,0.036 3.171,0.107 0.214,-0.143 0.214,-0.749 0.035,-0.89 l -0.747,-0.072 c -2.246,-0.25 -2.53,-0.891 -2.495,-3.385 0.071,-3.777 0.108,-10.368 0.393,-15.499 0.106,-1.782 0.071,-2.708 1.745,-2.886 l 1.14,-0.107 c 0.213,-0.214 0.179,-0.748 -0.071,-0.891 -1.461,0.071 -2.922,0.107 -4.204,0.107 -1.247,0 -2.85,-0.036 -4.311,-0.107 -0.249,0.178 -0.285,0.677 -0.072,0.891 l 1.034,0.107 c 1.746,0.178 1.746,0.748 1.746,3.029 L 11.259,9.264 H 11.187 C 10.938,8.872 9.583,6.022 8.872,4.633 L 5.701,-1.603 C 4.097,-4.739 2.494,-8.087 1.852,-9.726 1.781,-9.833 1.639,-9.87 1.496,-9.87 c -0.071,0 -0.25,0.037 -0.321,0.144 -0.605,1.888 -2.316,5.38 -3.135,7.126 l -3.207,6.876 c -0.748,1.639 -1.496,3.492 -2.28,5.131 H -7.518 C -7.661,7.198 -7.767,5.131 -7.875,3.064 -7.981,0.891 -8.124,-2.28 -8.124,-5.309 c 0,-2.636 0.214,-3.206 1.604,-3.313 l 1.353,-0.107 c 0.25,-0.214 0.215,-0.784 -0.035,-0.891 -1.211,0.071 -2.6,0.107 -3.955,0.107 -1.14,0 -2.422,-0.036 -3.634,-0.107 -0.213,0.178 -0.285,0.713 -0.071,0.891 l 0.784,0.107 c 1.497,0.178 1.996,0.428 2.208,2.921 0.214,2.352 0.392,4.311 0.607,7.839 0.178,2.957 0.32,5.987 0.391,7.945 0.072,2.245 -0.213,2.709 -2.387,3.065 l -0.57,0.072 c -0.178,0.212 -0.142,0.747 0.142,0.89 1.069,-0.071 1.925,-0.107 2.815,-0.107 0.82,0 1.782,0 2.957,0.107 -0.142,-1.389 0.748,-3.599 1.854,-5.879 z"
             style="fill:#13582d;fill-opacity:1;fill-rule:nonzero;stroke:none"
             id="path66"
             inkscape:connector-curvature="0" />
        </g>
      </g>
    </g>
  </g>
</svg>
